<svg xmlns="http://www.w3.org/2000/svg" width="41.246" height="35.375" viewBox="221.665 601.777 41.246 35.375"><g data-name="plus"><path d="M10.154 26.27v-6.96H4.212a4.211 4.211 0 1 1 0-8.423h5.942V3.93a3.928 3.928 0 1 1 7.856 0v6.958h5.942a4.212 4.212 0 1 1 0 8.423H18.01v6.96a3.928 3.928 0 0 1-7.856 0Z" stroke-linejoin="round" stroke-linecap="round" stroke-width="2" stroke="#e6484b" fill="transparent" transform="matrix(.92899 0 0 .93377 221.665 608.954)" data-name="Unión 12"/><g data-name="Unión 13"><path d="M253.905 614.911v-3.479h-2.97a2.106 2.106 0 1 1 0-4.212h2.97v-3.48a1.964 1.964 0 0 1 3.929 0v3.48h2.97a2.106 2.106 0 0 1 0 4.212h-2.97v3.48a1.964 1.964 0 1 1-3.929 0Z" fill="#e6484b" fill-rule="evenodd"/><path d="M5.077 13.135v-3.48H2.106a2.106 2.106 0 1 1 0-4.212h2.97v-3.48a1.964 1.964 0 0 1 3.93 0v3.48h2.97a2.106 2.106 0 0 1 0 4.212h-2.97v3.48a1.964 1.964 0 1 1-3.93 0Z" stroke-linejoin="round" stroke-linecap="round" stroke-width="2" stroke="#e6484b" fill="transparent" transform="matrix(.85798 0 0 .86754 249.828 602.777)"/></g></g></svg>